# xmcd
#
# Track frame offsets:
#	150
#	27837
#	50606
#	122045
#	143885
#	165641
#
# Disc length: 3755 seconds
#
# Revision: 1
# Processed by: cddbd v1.5.2PL0 Copyright (c) Steve Scherf et al.
# Submitted via: audiograbber 1.83.01
#
DISCID=4d0ea906
DTITLE=Grateful Dead - 72-11-18 Hofheinz Pavilion, Houston TX
DYEAR=1900
DGENRE=
TTITLE0=Bertha
TTITLE1=Greatest Story Ever Told
TTITLE2=He's Gone
TTITLE3=Jack Straw
TTITLE4=Deal
TTITLE5=Playing In The Band
EXTD=
EXTT0=
EXTT1=
EXTT2=
EXTT3=
EXTT4=
EXTT5=
PLAYORDER=
